<svg width="0" height="0" style="position:absolute"><defs><svg viewBox="0 0 15 25" id="arrow-left" xmlns="http://www.w3.org/2000/svg"><path fill-rule="evenodd" d="M13.898.003c.265 0 .497.092.695.275.397.367.397.946 0 1.282l-11.81 10.9 11.909 10.991c.398.367.398.947 0 1.283-.396.366-1.026.366-1.389 0L.005 12.46 13.17.278c.2-.183.464-.275.728-.275z"/></svg><svg viewBox="0 0 15 25" id="arrow-right" xmlns="http://www.w3.org/2000/svg"><path fill-rule="evenodd" d="M1.064 24.998a.995.995 0 01-.697-.275c-.398-.367-.398-.947 0-1.283l11.844-10.9L.267 1.549c-.398-.366-.398-.947 0-1.282C.665-.1 1.296-.1 1.66.267L14.998 12.54 1.794 24.723a1.085 1.085 0 01-.73.275z"/></svg><svg viewBox="0 0 51.5 31.5" id="back-to-top" xmlns="http://www.w3.org/2000/svg"><path fill="none" stroke="#63666A" d="M.5.5h50v30H.5V.5z"/><path fill="#63666A" fill-rule="evenodd" d="M35.734 22.416c-.509.499-1.225.748-2.147.748h-1.446v2.216h-1.643v-7.756h3.089c.929 0 1.646.234 2.153.703.506.47.759 1.132.759 1.989 0 .902-.255 1.601-.765 2.1zm-1.164-3.014c-.247-.218-.602-.327-1.066-.327h-1.363v2.626h1.363c.464 0 .819-.112 1.066-.338.246-.225.369-.555.369-.991 0-.428-.123-.752-.369-.97zm-7.598 5.573a3.843 3.843 0 01-1.986.526 3.844 3.844 0 01-1.987-.526 3.813 3.813 0 01-1.409-1.44 4.097 4.097 0 01-.515-2.044c0-.746.172-1.424.515-2.034a3.777 3.777 0 011.404-1.434 3.868 3.868 0 011.992-.521c.727 0 1.39.174 1.986.521a3.768 3.768 0 011.409 1.434c.344.61.515 1.288.515 2.034a4.09 4.09 0 01-.515 2.038 3.793 3.793 0 01-1.409 1.446zm-.057-4.725a2.332 2.332 0 00-.801-.892 2.072 2.072 0 00-2.231 0c-.346.218-.62.515-.821.892-.202.377-.302.79-.302 1.241 0 .458.102.875.307 1.252.204.376.478.676.821.897.343.222.716.333 1.118.333.402 0 .772-.11 1.108-.327.336-.218.603-.517.801-.898.198-.38.296-.799.296-1.257 0-.451-.098-.864-.296-1.241zm-8.555 5.13h-1.643v-6.271h-2.215v-1.485h6.084v1.485H18.36v6.271zM25.501 7.3L17.5 14.5v-1.8l8.001-7.2 7.999 7.2v1.8l-7.999-7.2z"/></svg><svg viewBox="0 0 42 42" id="carousel-arrow" xmlns="http://www.w3.org/2000/svg"><path d="M21 42C9.42 42 0 32.58 0 21S9.42 0 21 0s21 9.42 21 21-9.42 21-21 21zm0-40C10.52 2 2 10.52 2 21s8.52 19 19 19 19-8.52 19-19S31.48 2 21 2zm-3.94 32a.97.97 0 01-.69-.28.83.83 0 010-1.28l11.84-10.9-11.94-10.99c-.4-.37-.4-.95 0-1.28a1 1 0 011.39 0L31 21.54 17.79 33.72c-.2.19-.46.28-.73.28z"/></svg><svg viewBox="0 0 11 9" id="checkmark" xmlns="http://www.w3.org/2000/svg"><path fill-rule="evenodd" d="M3.557 8.998L0 5.153.881 4.2l2.676 2.892L10.118 0 11 .952 3.557 8.998z"/></svg><svg viewBox="0 0 32 32" id="cross-small" xmlns="http://www.w3.org/2000/svg"><path fill="#fff" fill-rule="evenodd" d="M19.359 12.591a.5.5 0 010 .707l-2.652 2.652 2.652 2.652a.5.5 0 01-.707.707L16 16.657l-2.652 2.652a.5.5 0 01-.707-.707l2.652-2.652-2.652-2.652a.5.5 0 01.707-.707L16 15.243l2.652-2.652a.5.5 0 01.707 0z"/></svg><svg viewBox="0 0 19 11" id="email-icon" xmlns="http://www.w3.org/2000/svg"><path fill-rule="evenodd" d="M.864 0a.839.839 0 00-.182.02l8.379 6.842c.207.168.671.168.877 0L18.319.02a.848.848 0 00-.183-.02H.864zM.041.608A.82.82 0 000 .846v9.308a.82.82 0 00.041.238l6.207-4.72L.041.608zm18.918 0l-6.207 5.064 6.207 4.72a.788.788 0 00.042-.238V.846a.788.788 0 00-.042-.238zM6.923 6.227L.689 10.98a.91.91 0 00.175.02h17.272a.92.92 0 00.176-.02l-6.235-4.753-1.585 1.289a1.585 1.585 0 01-1.984 0L6.923 6.227z"/></svg><svg viewBox="0 0 8 15" id="facebook" xmlns="http://www.w3.org/2000/svg"><path fill-rule="evenodd" d="M2.12 15.009h2.957V7.438h2.064l.219-2.534H5.077V3.461c0-.597.119-.835.683-.835h1.6V-.003H5.313c-2.2 0-3.193.99-3.193 2.887v2.02H.583V7.47H2.12v7.539z"/></svg><svg viewBox="0 0 24 24" id="filter" xmlns="http://www.w3.org/2000/svg"><path fill="var(--teflon)" fill-rule="evenodd" d="M11.437 7.5a2 2 0 01-3.874 0H4.5a.5.5 0 010-1h3.063a2 2 0 013.874 0H19.5a.5.5 0 110 1h-8.063zm-1.07 0a.995.995 0 000-1 1 1 0 100 1zm3.196 4.5a2 2 0 013.874 0H19.5a.5.5 0 110 1h-2.063a2 2 0 01-3.874 0H4.5a.5.5 0 110-1h9.063zm1.07 0a.995.995 0 000 1 1 1 0 100-1zm-5.196 6a2 2 0 01-3.874 0H4.5a.5.5 0 110-1h1.063a2 2 0 013.874 0H19.5a.5.5 0 110 1H9.437zm-1.07 0a.995.995 0 000-1 1 1 0 100 1z"/></svg><svg viewBox="0 0 26.5 35.5" id="icing-bag" xmlns="http://www.w3.org/2000/svg"><path fill="none" stroke="#222" d="M.5 9.5h25v25H.5v-25z"/><path fill="none" stroke="#000" d="M6.501 8.506C6.501 4.821 9.41.5 13 .5s6.5 4.321 6.5 8.006"/></svg><svg viewBox="0 0 149 41" id="icing-logo-desktop" xmlns="http://www.w3.org/2000/svg"><path fill-rule="evenodd" d="M148.9 24.48c-.24.464-.458.954-.623 1.426a9.372 9.372 0 01-.684 1.502c-.271.479-.553.947-.836 1.388-.288.443-.587.874-.884 1.28a28.261 28.261 0 01-2.182 2.466 22.582 22.582 0 01-2.467 2.144c-3.909 2.925-8.223 4.688-12.817 5.246a27.459 27.459 0 01-6.437-.048c-16.712-3.056-18.421-16.399-18.421-16.399a14.794 14.794 0 01.305-6.535 18.208 18.208 0 012.848-6.012 24.352 24.352 0 014.599-4.782 29.302 29.302 0 017.179-4.033 31.108 31.108 0 017.938-1.945 32.477 32.477 0 018.182.164 29.929 29.929 0 017.913 2.303.385.385 0 01.242.242c.051.136.021.291-.083.458a2.073 2.073 0 01-.476.509 3.573 3.573 0 01-.652.413c-.324.163-.585.171-.789.036-2.279-1.01-4.817-1.752-7.496-2.18a30.477 30.477 0 00-8.055-.213 28.06 28.06 0 00-7.726 1.958 20.462 20.462 0 00-6.541 4.308 18.981 18.981 0 00-3.887 5.425 14.17 14.17 0 00-1.414 6.408s-.544 10.535 12.226 16.659c2.011.8 4.065 1.302 6.116 1.497 2.469.254 4.981.144 7.479-.333a21.399 21.399 0 007.082-2.72 27.545 27.545 0 002.858-2.076 17.408 17.408 0 002.474-2.534c.358-.469.711-.952 1.06-1.445.335-.478.642-.974.904-1.473.191-.377.373-.783.545-1.199.113-.275.223-.545.334-.811l-15.542.41c-.209.007-.301-.097-.345-.186-.044-.087-.076-.232.035-.437.083-.161.211-.315.388-.474.156-.135.325-.27.513-.408.231-.166.406-.246.557-.249l16.193-.429c.089-.001.361-.008.459.226.033.08.07.245-.072.453zM99.175 40.081a2.283 2.283 0 01-.526.273c-.209.074-.387.063-.532-.022a.349.349 0 01-.241-.234 1838.543 1838.543 0 01-10.155-9.815C84.334 26.99 80.93 23.68 77.5 20.35c-2.901-2.821-5.786-5.625-8.655-8.412a3048.465 3048.465 0 00-8.282-8.01v35.681c0 .24-.109.465-.329.667a3.833 3.833 0 01-.526.408 1.428 1.428 0 01-.588.224.729.729 0 01-.088.005.418.418 0 01-.276-.086.454.454 0 01-.152-.349V1.831c0-.194.086-.386.262-.591a2.52 2.52 0 01.47-.424c.179-.126.361-.212.549-.255.234-.053.416-.016.564.099l.116.074c3.351 3.282 6.772 6.604 10.175 9.878 3.376 3.25 6.8 6.593 10.176 9.935 2.93 2.821 5.839 5.626 8.724 8.411 2.745 2.654 5.514 5.324 8.303 8.01V1.342c0-.241.112-.465.329-.667.17-.155.347-.293.529-.409.199-.126.398-.202.588-.224.381-.041.516.193.516.431v38.593c0 .193-.087.386-.261.591a2.69 2.69 0 01-.469.424zm-46.39.553a2.792 2.792 0 01-.636.242.818.818 0 01-.172.022c-.258 0-.437-.174-.437-.421V1.342c0-.232.118-.452.345-.656.184-.165.398-.306.635-.425a2.06 2.06 0 01.67-.219c.428-.047.578.194.576.429v39.137c0 .2-.112.398-.342.604-.186.16-.395.303-.639.422zM13.778 31.8a23.567 23.567 0 006.77 4.716 28.33 28.33 0 007.938 2.363c1.401.202 2.826.304 4.237.304 1.352 0 2.726-.094 4.09-.276a28.732 28.732 0 007.916-2.228c.097-.05.255-.084.501-.107l.079-.003c.244 0 .348.125.391.199.075.134.065.291-.035.468a1.327 1.327 0 01-.539.666c-.233.155-.45.273-.655.354a31.25 31.25 0 01-10.562 2.652 30.41 30.41 0 01-10.852-1.123 28.635 28.635 0 01-4.175-1.534 25.941 25.941 0 01-3.911-2.225 23.568 23.568 0 01-3.439-2.886 18.718 18.718 0 01-2.738-3.528 17.615 17.615 0 01-2.297-6.128 14.795 14.795 0 01.306-6.535 18.142 18.142 0 012.847-6.011 24.348 24.348 0 014.599-4.781 29.426 29.426 0 017.179-4.035A31.212 31.212 0 0129.366.177a32.573 32.573 0 018.182.164 30.011 30.011 0 017.916 2.304.38.38 0 01.236.241c.051.137.027.292-.08.46-.11.173-.271.343-.475.509a3.692 3.692 0 01-.653.413c-.324.162-.584.169-.786.035-2.281-1.009-4.819-1.752-7.497-2.18a30.635 30.635 0 00-8.059-.215 28.21 28.21 0 00-7.725 1.961 20.445 20.445 0 00-6.543 4.307 19.116 19.116 0 00-3.885 5.425 14.2 14.2 0 00-1.412 6.408c0 2.233.469 4.373 1.388 6.367a18.66 18.66 0 003.805 5.424zm-12.53 8.834a2.856 2.856 0 01-.641.242.78.78 0 01-.172.022c-.255 0-.435-.174-.435-.421V1.342C0 1.11.113.89.344.686.529.521.741.38.979.261c.248-.122.473-.197.671-.219.433-.047.577.194.577.429v39.137c0 .2-.112.398-.345.604-.181.16-.395.303-.634.422z"/></svg><svg viewBox="0 0 97 27" id="icing-logo-mobile" xmlns="http://www.w3.org/2000/svg"><path fill-rule="evenodd" d="M95.933 16.126a7.597 7.597 0 00-.401.938 6.114 6.114 0 01-.441.99 18.67 18.67 0 01-.538.914c-.187.292-.378.576-.57.843a18.34 18.34 0 01-1.406 1.624 14.75 14.75 0 01-1.589 1.412c-2.52 1.927-5.298 3.088-8.258 3.454a17.101 17.101 0 01-4.148-.031c-10.769-2.013-11.869-10.799-11.869-10.799a9.945 9.945 0 01.196-4.304 12.114 12.114 0 011.835-3.96 15.935 15.935 0 012.964-3.149 18.786 18.786 0 014.625-2.656A19.698 19.698 0 0181.447.121a20.435 20.435 0 015.272.108 19 19 0 015.099 1.516.25.25 0 01.156.161c.032.089.013.191-.054.301a1.344 1.344 0 01-.306.335 2.328 2.328 0 01-.42.272c-.209.107-.378.113-.509.024a19.253 19.253 0 00-4.83-1.436 19.26 19.26 0 00-5.189-.141 17.793 17.793 0 00-4.978 1.29c-1.582.667-3 1.622-4.216 2.837a12.543 12.543 0 00-2.503 3.573 9.507 9.507 0 00-.911 4.22s-.352 6.938 7.877 10.971c1.295.527 2.62.858 3.941.986 1.591.168 3.209.095 4.819-.219a13.624 13.624 0 004.562-1.791 17.709 17.709 0 001.842-1.368 11.367 11.367 0 001.594-1.668c.231-.309.458-.627.683-.952.216-.315.414-.642.583-.97.122-.249.24-.516.35-.79.072-.181.144-.359.217-.534l-10.015.27c-.135.005-.194-.064-.223-.122-.027-.058-.048-.154.023-.288.053-.106.136-.207.25-.312.1-.089.209-.179.33-.27.149-.108.263-.161.359-.163l10.434-.283c.057 0 .232-.005.295.149.023.053.046.162-.046.299zM63.895 26.4a1.49 1.49 0 01-.339.18c-.136.048-.249.041-.343-.015a.224.224 0 01-.155-.154 1179.65 1179.65 0 01-6.543-6.464c-2.182-2.168-4.376-4.349-6.586-6.542-1.87-1.857-3.727-3.704-5.576-5.539a1809.81 1809.81 0 00-5.337-5.275v23.498c0 .158-.07.306-.212.439a2.3 2.3 0 01-.339.269.912.912 0 01-.378.148.624.624 0 01-.057.003.262.262 0 01-.177-.057.299.299 0 01-.099-.23V1.21c0-.128.056-.254.169-.39.09-.105.192-.2.302-.279a.973.973 0 01.355-.167c.151-.036.268-.012.363.064l.075.049a1034.11 1034.11 0 006.556 6.506 651.656 651.656 0 016.556 6.543c1.889 1.857 3.763 3.704 5.621 5.539 1.769 1.748 3.553 3.506 5.35 5.274V.887c0-.158.073-.306.212-.439.109-.102.223-.193.341-.269a.89.89 0 01.379-.147c.244-.027.332.127.332.283v25.417c0 .126-.056.254-.168.388-.09.106-.192.2-.302.28zm-29.891.364a1.72 1.72 0 01-.409.159.466.466 0 01-.111.015c-.166 0-.282-.115-.282-.278V.887c0-.152.076-.297.224-.431.117-.109.255-.202.408-.28a1.28 1.28 0 01.432-.144c.275-.032.372.127.371.282v25.774c0 .132-.072.262-.22.398-.119.105-.254.2-.413.278zM8.871 20.946a15.19 15.19 0 004.363 3.106c1.634.775 3.355 1.3 5.114 1.556.903.133 1.821.2 2.731.2.872 0 1.756-.061 2.634-.181a18.17 18.17 0 005.101-1.468c.062-.033.165-.055.324-.07l.05-.002c.157 0 .224.083.252.131.048.089.041.192-.022.308a.87.87 0 01-.348.439c-.149.102-.29.18-.422.233a19.784 19.784 0 01-6.805 1.747 19.215 19.215 0 01-6.993-.74 18.287 18.287 0 01-2.689-1.01 16.61 16.61 0 01-2.52-1.466 15.33 15.33 0 01-2.217-1.9 12.335 12.335 0 01-1.763-2.323 11.761 11.761 0 01-1.48-4.036 9.962 9.962 0 01.197-4.304 12.069 12.069 0 011.835-3.959 15.874 15.874 0 012.963-3.149 18.823 18.823 0 014.625-2.656A19.725 19.725 0 0118.916.121a20.52 20.52 0 015.271.107c1.765.265 3.479.776 5.101 1.517a.253.253 0 01.152.159c.033.091.017.193-.052.303a1.44 1.44 0 01-.305.336 2.425 2.425 0 01-.421.271c-.209.107-.376.112-.507.024a19.307 19.307 0 00-4.83-1.436 19.281 19.281 0 00-5.192-.141 17.874 17.874 0 00-4.978 1.291c-1.581.666-3 1.62-4.216 2.836a12.632 12.632 0 00-2.504 3.573 9.538 9.538 0 00-.909 4.22c0 1.47.302 2.88.894 4.193a12.301 12.301 0 002.451 3.572zM.798 26.764a1.77 1.77 0 01-.412.159.454.454 0 01-.111.015.267.267 0 01-.28-.278V.887c0-.152.072-.297.222-.431C.336.347.472.254.626.176c.159-.081.305-.13.433-.144.277-.032.37.127.37.282v25.774c0 .132-.071.262-.222.398a1.85 1.85 0 01-.409.278z"/></svg><svg viewBox="0 0 32 32" id="instagram" xmlns="http://www.w3.org/2000/svg"><path fill="#EA2578" fill-rule="evenodd" d="M23.91 32H8.089C3.629 32 0 28.371 0 23.91V8.09C0 3.629 3.629 0 8.089 0H23.91C28.371 0 32 3.629 32 8.09v15.82c0 4.461-3.629 8.09-8.09 8.09zm5.574-23.91a5.58 5.58 0 00-5.574-5.573H8.089A5.578 5.578 0 002.517 8.09v15.82a5.578 5.578 0 005.572 5.573H23.91a5.58 5.58 0 005.574-5.573V8.09zm-4.675 1.812a2.128 2.128 0 01-2.125-2.125c0-1.172.954-2.125 2.125-2.125 1.172 0 2.125.953 2.125 2.125a2.127 2.127 0 01-2.125 2.125zm0-2.157a.032.032 0 00-.032.032c0 .036.064.036.064 0a.032.032 0 00-.032-.032zM16 24.069c-4.449 0-8.069-3.62-8.069-8.069 0-4.449 3.62-8.068 8.069-8.068 4.449 0 8.068 3.619 8.068 8.068S20.449 24.069 16 24.069zm0-13.621A5.558 5.558 0 0010.449 16 5.558 5.558 0 0016 21.552 5.559 5.559 0 0021.552 16 5.559 5.559 0 0016 10.448z"/></svg><svg viewBox="0 0 30 21" id="menu" xmlns="http://www.w3.org/2000/svg"><path fill-rule="evenodd" d="M28.5 12H1.501a1.5 1.5 0 110-3H28.5a1.5 1.5 0 110 3zm0-9H1.501A1.501 1.501 0 010 1.5C0 .672.673 0 1.501 0H28.5a1.5 1.5 0 110 3zM1.501 18H28.5a1.5 1.5 0 110 3H1.501a1.5 1.5 0 110-3z"/></svg><svg viewBox="0 0 10 2" id="minus-icon-mobile" xmlns="http://www.w3.org/2000/svg"><path fill="#fff" fill-rule="evenodd" d="M0 0h10.001v2H0V0z"/></svg><svg viewBox="0 0 10 2" id="minus-icon-mobile-black" xmlns="http://www.w3.org/2000/svg"><path fill-rule="evenodd" d="M0 0h10.001v2H0V0z"/></svg><svg viewBox="0 0 9 12" id="pin-icing-desktop" xmlns="http://www.w3.org/2000/svg"><path fill="#FFF" fill-rule="evenodd" d="M4.495 0C2.013 0 .001 1.65.001 3.682c0 .486.159 1.047.353 1.462 1.286 2.139 2.568 4.559 3.849 6.702A.361.361 0 004.5 12a.361.361 0 00.297-.154c1.297-2.137 2.544-4.571 3.848-6.702.197-.415.355-.976.355-1.462C9 1.649 6.976 0 4.495 0zm0 .545c2.122 0 3.838 1.399 3.838 3.137 0 .38-.148.918-.312 1.265L4.5 11.109.979 4.947C.816 4.6.667 4.062.667 3.682.667 1.943 2.373.545 4.495.545zm0 1.091c-1.377 0-2.496.919-2.496 2.046 0 1.127 1.119 2.045 2.496 2.045S7 4.81 7 3.682 5.872 1.636 4.495 1.636zm0 .546c1.017 0 1.838.667 1.838 1.5 0 .832-.821 1.5-1.838 1.5-1.018 0-1.829-.666-1.829-1.5s.811-1.5 1.829-1.5z"/></svg><svg viewBox="0 0 16 27" id="pin-icing-mobile" xmlns="http://www.w3.org/2000/svg"><path fill-rule="evenodd" d="M7.99 0C3.579 0 0 3.712 0 8.284c0 1.094.284 2.357.629 3.289 2.286 4.814 4.564 10.259 6.843 15.081A.614.614 0 008 27a.614.614 0 00.528-.346c2.306-4.808 4.521-10.285 6.842-15.081.349-.933.63-2.195.63-3.289C16 3.71 12.402 0 7.99 0zm0 1.227c3.772 0 6.825 3.148 6.825 7.057 0 .856-.264 2.067-.556 2.848L8 24.996 1.741 11.132c-.291-.782-.556-1.993-.556-2.848 0-3.911 3.034-7.057 6.805-7.057zm0 2.455c-2.446 0-4.435 2.066-4.435 4.602 0 2.536 1.989 4.603 4.435 4.603 2.447 0 4.454-2.065 4.454-4.603S10.437 3.682 7.99 3.682zm0 1.228c1.809 0 3.27 1.5 3.27 3.374s-1.461 3.375-3.27 3.375c-1.807 0-3.249-1.499-3.249-3.375S6.183 4.91 7.99 4.91z"/></svg><svg viewBox="0 0 12 15" id="pinterest" xmlns="http://www.w3.org/2000/svg"><path fill-rule="evenodd" d="M1.702 8.662c.191.08.364.003.42-.21l.17-.676c.056-.211.035-.285-.12-.47-.338-.399-.553-.917-.553-1.651 0-2.128 1.583-4.032 4.123-4.032 2.248 0 3.483 1.382 3.483 3.228 0 2.426-1.069 4.475-2.655 4.475-.875 0-1.531-.728-1.321-1.622.252-1.066.74-2.217.74-2.987 0-.689-.369-1.264-1.13-1.264-.895 0-1.615.931-1.615 2.179 0 .794.268 1.332.268 1.332s-.918 3.905-1.077 4.589c-.32 1.361-.049 3.03-.026 3.199.014.1.141.123.199.048.083-.108 1.15-1.432 1.511-2.755.104-.374.59-2.314.59-2.314.291.557 1.142 1.049 2.045 1.049 2.692 0 4.518-2.468 4.518-5.771 0-2.497-2.104-4.823-5.301-4.823-3.977 0-5.982 2.868-5.982 5.26 0 1.448.544 2.736 1.713 3.216z"/></svg><svg viewBox="0 0 10 10" id="plus-icon-mobile" xmlns="http://www.w3.org/2000/svg"><path fill="#fff" fill-rule="evenodd" d="M10 6H6.001v4H4V6H0V4h4V0h2.001v4H10v2z"/></svg><svg viewBox="0 0 10 10" id="plus-icon-mobile-black" xmlns="http://www.w3.org/2000/svg"><path fill-rule="evenodd" d="M10 6H6.001v4H4V6H0V4h4V0h2.001v4H10v2z"/></svg><svg viewBox="0 0 24 23" id="search-icon-icing-desktop" xmlns="http://www.w3.org/2000/svg"><path fill="#E81E75" fill-rule="evenodd" d="M22.848 22.124l-6.42-6.42c3.315-3.693 3.198-9.396-.353-12.946A9.351 9.351 0 009.417 0c-2.515 0-4.88.979-6.659 2.758A9.36 9.36 0 000 9.417c0 2.516.98 4.881 2.758 6.659a9.356 9.356 0 006.659 2.759 9.345 9.345 0 006.287-2.407l6.42 6.421a.51.51 0 00.724 0c.2-.2.2-.525 0-.725zM9.417 17.81a8.339 8.339 0 01-5.935-2.458 8.339 8.339 0 01-2.458-5.935 8.34 8.34 0 012.458-5.935 8.339 8.339 0 015.935-2.458c2.241 0 4.349.873 5.934 2.458 3.273 3.272 3.273 8.597 0 11.87a8.338 8.338 0 01-5.934 2.458z"/></svg><svg viewBox="0 0 27 27" id="search-icon-icing-mobile" xmlns="http://www.w3.org/2000/svg"><path fill-rule="evenodd" d="M26.822 25.972l-7.538-7.537c3.893-4.335 3.755-11.029-.412-15.197A10.985 10.985 0 0011.054 0a10.98 10.98 0 00-7.816 3.238A10.982 10.982 0 000 11.055c0 2.953 1.15 5.729 3.238 7.817a10.98 10.98 0 007.816 3.238c2.752 0 5.349-.999 7.38-2.825l7.537 7.537a.598.598 0 00.851 0 .602.602 0 000-.85zm-15.768-5.064a9.787 9.787 0 01-6.966-2.886 9.788 9.788 0 01-2.886-6.967 9.788 9.788 0 012.886-6.967 9.787 9.787 0 016.966-2.886 9.79 9.79 0 016.968 2.886c3.841 3.841 3.841 10.092 0 13.934a9.79 9.79 0 01-6.968 2.886z"/></svg><svg viewBox="0 0 33 29" id="snapchat" xmlns="http://www.w3.org/2000/svg"><path fill-rule="evenodd" d="M16.858 28.998c-.093 0-.18-.003-.245-.006a2.213 2.213 0 01-.162.006c-1.937 0-3.231-.869-4.372-1.637-.818-.549-1.59-1.067-2.495-1.211a8.439 8.439 0 00-1.311-.105c-.768 0-1.376.113-1.82.195-.274.052-.509.096-.691.096-.19 0-.421-.041-.52-.354a9.58 9.58 0 01-.183-.717c-.133-.575-.228-.927-.455-.96-2.427-.356-3.861-.88-4.145-1.514a.538.538 0 01-.051-.201.374.374 0 01.324-.386c1.928-.302 3.642-1.27 5.094-2.877 1.126-1.245 1.679-2.434 1.739-2.565.001-.006.005-.013.007-.019.28-.539.336-1.006.167-1.386-.314-.699-1.348-1.012-2.033-1.219a7.373 7.373 0 01-.462-.148c-.607-.227-1.605-.709-1.473-1.374.099-.485.772-.823 1.317-.823a.98.98 0 01.399.076c.616.274 1.171.414 1.647.414.594 0 .88-.215.949-.276-.017-.3-.038-.619-.059-.92v-.003c-.139-2.103-.312-4.721.393-6.223C10.525.368 14.999.019 16.318.019l.576-.005.079-.001c1.324 0 5.806.35 7.918 4.846.705 1.502.532 4.122.392 6.228l-.006.1c-.02.287-.039.557-.052.82.064.056.327.253.86.273.454-.016.976-.154 1.551-.411a1.31 1.31 0 01.509-.096c.202 0 .407.038.579.107l.008.003c.49.164.808.492.815.838.008.323-.245.805-1.483 1.269-.129.048-.29.097-.461.148-.687.207-1.722.52-2.034 1.219-.168.38-.114.847.166 1.385a.085.085 0 00.01.019c.086.192 2.173 4.713 6.83 5.443a.375.375 0 01.326.386.551.551 0 01-.053.201c-.281.631-1.716 1.155-4.143 1.511-.228.033-.324.383-.456.956a9.238 9.238 0 01-.185.712c-.071.23-.228.342-.48.342h-.037c-.164 0-.398-.029-.691-.084a9.645 9.645 0 00-1.822-.183c-.426 0-.868.035-1.311.105-.903.144-1.676.661-2.493 1.209-1.142.77-2.438 1.639-4.372 1.639"/></svg><svg viewBox="0 0 19 15" id="twitter" xmlns="http://www.w3.org/2000/svg"><path fill-rule="evenodd" d="M.754 13.41a11.008 11.008 0 005.741 1.598c6.954 0 10.882-5.575 10.646-10.576a7.418 7.418 0 001.869-1.841 7.814 7.814 0 01-2.151.56 3.606 3.606 0 001.646-1.968 7.736 7.736 0 01-2.377.863A3.841 3.841 0 0013.393.923c-2.417 0-4.195 2.143-3.648 4.367-3.113-.149-5.873-1.565-7.719-3.716-.982 1.599-.51 3.689 1.158 4.748a3.89 3.89 0 01-1.696-.445c-.04 1.647 1.203 3.188 3.004 3.531a3.956 3.956 0 01-1.691.062c.475 1.412 1.859 2.44 3.497 2.468C4.725 13.11 2.742 13.633.754 13.41z"/></svg><svg viewBox="0 0 30 28" id="weloveit" xmlns="http://www.w3.org/2000/svg"><path fill-rule="evenodd" d="M21.164 7.43c-.009.844.233 2.855 2.919 2.855 1.191 0 2.35-.712 2.612-1.514h3.003c-.879 2.701-2.888 3.851-5.562 3.851-3.565 0-6.299-1.605-6.299-6.226 0-1.352.947-5.749 6.062-5.749 2.496 0 5.941 1.127 5.941 6.255v.528h-8.676zm2.643-4.481c-1.634 0-2.501.921-2.7 2.461h5.375c-.198-1.891-1.56-2.461-2.675-2.461zm-12.174 9.356L9.427 4.637l-2.09 7.668H3.958L.197.901h3.429l2.244 7.81s.432-1.546 1.966-7.81h3.349l2.018 7.824L15.384.901h3.527l-3.853 11.404h-3.425zm-6.63 2.544c.767-.121 1.466.082 2.147.367.716.3 1.364.71 1.952 1.195.113.093.36.262.36.262s.168-.123.314-.25c.616-.535 1.355-.918 2.137-1.207 1.518-.56 2.866-.204 4.037.766 1.598 1.326 1.966 3.172 1.137 5.154-.681 1.624-1.89 2.869-3.25 4.001-1.245 1.032-2.63 1.888-4.058 2.681-.133.074-.335.182-.335.182s-.229-.112-.341-.171c-1.759-.935-3.438-1.976-4.88-3.305-1.375-1.27-2.463-2.713-2.782-4.556-.05-.281-.035-.562-.055-.842-.12-1.926 1.578-3.955 3.617-4.277zm17.077 2.468h-2.903v-2.225h2.903v2.225zm0 10.244h-2.903v-9.576h2.903v9.576zm2.108-12.465h2.927v2.888h2.078v1.791h-2.228v5.114c0 .55.54.762 1.62.762.171 0 .363-.018.552-.036v2.003c-.418.018-1.358.037-1.774.037h-.343c-2.296 0-2.711-.815-2.711-2.036v-5.844h-1.79v-1.791h1.669v-2.888z"/></svg><svg viewBox="0 0 20 20" id="x-close-large" xmlns="http://www.w3.org/2000/svg"><path fill-rule="evenodd" d="M0 19.2l9.198-9.201L0 .799.799 0l9.198 9.201L19.199.003l.799.799-9.201 9.197 9.199 9.201-.799.799-9.2-9.201-9.201 9.198L0 19.2z"/></svg><svg viewBox="0 0 12 12" id="x-close-small" xmlns="http://www.w3.org/2000/svg"><path fill-rule="evenodd" d="M0 11.52L5.519 6 0 .479.479 0l5.52 5.52 5.52-5.518.48.479L6.478 6l5.519 5.52-.479.479-5.519-5.52-5.522 5.519L0 11.52z"/></svg><svg viewBox="0 0 20 20" id="x-modal" xmlns="http://www.w3.org/2000/svg"><path fill-rule="evenodd" d="M0 19.2l9.198-9.201L0 .799.799 0l9.198 9.201L19.199.003l.799.799-9.201 9.197 9.199 9.201-.799.799-9.2-9.201-9.201 9.198L0 19.2z"/></svg><svg viewBox="0 0 26 28" id="youtube" xmlns="http://www.w3.org/2000/svg"><path fill-rule="evenodd" d="M22.396 27.959H3.844c-1.994 0-3.61-1.517-3.61-3.39V16c0-1.875 1.616-3.393 3.61-3.393h18.552c1.993 0 3.609 1.518 3.609 3.393v8.569c0 1.873-1.616 3.39-3.609 3.39zM8.062 15.147H2.88v1.492h1.748v8.781h1.688v-8.781h1.746v-1.492zm4.258 2.697h-1.499v5.751c-.183.215-.59.567-.881.567-.321 0-.398-.205-.398-.511v-5.807H8.041v6.333c0 1.538 1.11 1.547 1.918 1.112.297-.162.584-.397.862-.704v.835h1.499v-7.576zm5.771 1.803c0-1.028-.364-1.899-1.462-1.899-.535 0-.996.319-1.333.708v-3.309h-1.512V25.42h1.512v-.581c.418.489.875.678 1.424.678.998 0 1.371-.729 1.371-1.665v-4.205zm5.54 3.066H22.09v.526c0 .66-.039 1.06-.671 1.06-.603 0-.654-.491-.654-1.06V21.81h2.866v-1.929c0-1.37-.695-2.23-2.133-2.23-1.353 0-2.277.913-2.277 2.23v3.4c0 1.365.731 2.344 2.164 2.344 1.578 0 2.246-.883 2.246-2.344v-.568zm-2.866-2.846c0-.521.114-.888.669-.888.538 0 .656.374.656.888v.766h-1.325v-.766zm-5.114 4.377a1.311 1.311 0 01-.355-.265v-4.723c.101-.103.203-.181.309-.23.264-.125.601-.102.783.124.105.132.16.326.16.582v3.914c0 .24-.043.414-.13.521-.166.204-.523.195-.767.077zm3.052-14.326c-.681.76-1.342.992-1.819.992-.844 0-1.101-.634-1.101-1.421v-6.65h1.576v6.1c0 .32.081.536.418.536.307 0 .735-.371.926-.597V2.839h1.573v7.956h-1.573v-.877zm-6.517 1.025c-1.526 0-2.307-.729-2.307-2.131V4.911c0-1.276.918-2.137 2.307-2.137 1.276 0 2.262.892 2.262 2.137v3.901c0 1.336-.997 2.131-2.262 2.131zm.657-5.901c0-.445-.206-.758-.688-.758-.442 0-.656.323-.656.758v3.702c0 .419.252.754.687.754.423 0 .657-.321.657-.754V5.042zm-4.946 5.753H6.122V6.421L4.015.01H5.8l1.223 4.311L8.159.01h1.8L7.897 6.421v4.374z"/></svg></defs></svg>